<svg xmlns="http://www.w3.org/2000/svg" xmlns:xlink="http://www.w3.org/1999/xlink" width="500" zoomAndPan="magnify" viewBox="0 0 375 374.999991" height="500" preserveAspectRatio="xMidYMid meet" version="1.0"><defs><g/><clipPath id="a5c8348567"><path d="M 37.5 37.5 L 337.355469 37.5 L 337.355469 333.839844 L 37.5 333.839844 Z M 37.5 37.5 " clip-rule="nonzero"/></clipPath><clipPath id="5a84a0ca7e"><path d="M 37.5 333.691406 L 37.5 235.023438 L 43.75 234.222656 L 50.199219 228.242188 L 53.191406 213.28125 L 58.777344 201.777344 L 56.050781 201.777344 L 56.050781 193.800781 L 99.199219 193.800781 L 99.199219 180.367188 L 106.648438 180.367188 L 106.648438 174.382812 L 127.191406 174.382812 L 127.191406 162.28125 L 126.328125 161.75 L 127.125 154.371094 L 130.582031 154.371094 L 130.582031 149.316406 L 175.449219 149.316406 L 175.449219 146.175781 L 174.625 145.355469 L 175.949219 143.136719 L 175.949219 126.8125 L 174.75 124.882812 L 177.011719 121.824219 L 184.855469 101.945312 L 184.855469 97.15625 L 181.796875 96.160156 L 184.855469 94.230469 L 185.921875 80.800781 L 185.390625 80.070312 L 186.519531 74.75 L 188.878906 45.808594 L 188.347656 39.691406 L 186.484375 37.632812 L 188.945312 39.027344 L 191.140625 37.5 L 189.542969 39.625 L 189.039062 45.808594 L 191.285156 74.777344 L 192.46875 80.25 L 191.792969 80.835938 L 192.09375 85.089844 L 193.066406 86.25 L 192.144531 86.5 L 192.621094 93.9375 L 195.980469 96.394531 L 192.324219 97.027344 L 192.324219 100.984375 L 200.261719 121.636719 L 202.230469 124.457031 L 201.632812 125.425781 L 201.632812 131.585938 L 219.410156 131.585938 L 228.230469 143.078125 L 228.894531 140.886719 L 231.355469 140.886719 L 232.019531 144.011719 L 246.546875 157.074219 L 246.546875 170.871094 L 248.042969 170.871094 L 248.042969 166.285156 L 248.574219 163.789062 L 248.941406 166.382812 L 248.941406 170.9375 L 251.566406 170.9375 L 251.566406 166.71875 L 252.097656 163.890625 L 252.398438 166.21875 L 252.398438 170.90625 L 255.519531 170.90625 L 255.519531 166.617188 L 256.019531 163.792969 L 256.382812 166.550781 L 256.382812 170.90625 L 257.414062 170.90625 L 257.414062 172.601562 L 274.933594 172.601562 L 274.933594 180.183594 L 275.367188 180.183594 L 278.460938 162.679688 L 282.097656 180.28125 L 282.097656 191.453125 L 280.152344 191.453125 L 292.71875 203.070312 L 292.71875 210.652344 L 296.910156 210.652344 L 296.910156 237.296875 L 297.789062 237.828125 L 305.636719 237.828125 L 305.636719 256.511719 L 314.078125 256.511719 L 319.398438 251.195312 L 325.78125 251.195312 L 325.78125 249.265625 L 328.972656 249.265625 L 328.972656 253.191406 L 329.90625 254.121094 L 331.566406 254.121094 L 331.566406 255.71875 L 333.328125 257.480469 L 333.328125 264.859375 L 337.347656 264.859375 L 337.347656 333.710938 Z M 37.5 333.691406 " clip-rule="nonzero"/></clipPath><clipPath id="3c3a8698aa"><path d="M 0.5 0.5 L 300.355469 0.5 L 300.355469 296.839844 L 0.5 296.839844 Z M 0.5 0.5 " clip-rule="nonzero"/></clipPath><clipPath id="c111f57226"><path d="M 0.5 296.691406 L 0.5 198.023438 L 6.75 197.222656 L 13.199219 191.242188 L 16.191406 176.28125 L 21.777344 164.777344 L 19.050781 164.777344 L 19.050781 156.800781 L 62.199219 156.800781 L 62.199219 143.367188 L 69.648438 143.367188 L 69.648438 137.382812 L 90.191406 137.382812 L 90.191406 125.28125 L 89.328125 124.75 L 90.125 117.371094 L 93.582031 117.371094 L 93.582031 112.316406 L 138.449219 112.316406 L 138.449219 109.175781 L 137.625 108.355469 L 138.949219 106.136719 L 138.949219 89.8125 L 137.75 87.882812 L 140.011719 84.824219 L 147.855469 64.945312 L 147.855469 60.15625 L 144.796875 59.160156 L 147.855469 57.230469 L 148.921875 43.800781 L 148.390625 43.070312 L 149.519531 37.75 L 151.878906 8.808594 L 151.347656 2.691406 L 149.484375 0.632812 L 151.945312 2.027344 L 154.140625 0.5 L 152.542969 2.625 L 152.039062 8.808594 L 154.285156 37.777344 L 155.46875 43.25 L 154.792969 43.835938 L 155.09375 48.089844 L 156.066406 49.25 L 155.144531 49.5 L 155.621094 56.9375 L 158.980469 59.394531 L 155.324219 60.027344 L 155.324219 63.984375 L 163.261719 84.636719 L 165.230469 87.457031 L 164.632812 88.425781 L 164.632812 94.585938 L 182.410156 94.585938 L 191.230469 106.078125 L 191.894531 103.886719 L 194.355469 103.886719 L 195.019531 107.011719 L 209.546875 120.074219 L 209.546875 133.871094 L 211.042969 133.871094 L 211.042969 129.285156 L 211.574219 126.789062 L 211.941406 129.382812 L 211.941406 133.9375 L 214.566406 133.9375 L 214.566406 129.71875 L 215.097656 126.890625 L 215.398438 129.21875 L 215.398438 133.90625 L 218.519531 133.90625 L 218.519531 129.617188 L 219.019531 126.792969 L 219.382812 129.550781 L 219.382812 133.90625 L 220.414062 133.90625 L 220.414062 135.601562 L 237.933594 135.601562 L 237.933594 143.183594 L 238.367188 143.183594 L 241.460938 125.679688 L 245.097656 143.28125 L 245.097656 154.453125 L 243.152344 154.453125 L 255.71875 166.070312 L 255.71875 173.652344 L 259.910156 173.652344 L 259.910156 200.296875 L 260.789062 200.828125 L 268.636719 200.828125 L 268.636719 219.511719 L 277.078125 219.511719 L 282.398438 214.195312 L 288.78125 214.195312 L 288.78125 212.265625 L 291.972656 212.265625 L 291.972656 216.191406 L 292.90625 217.121094 L 294.566406 217.121094 L 294.566406 218.71875 L 296.328125 220.480469 L 296.328125 227.859375 L 300.347656 227.859375 L 300.347656 296.710938 Z M 0.5 296.691406 " clip-rule="nonzero"/></clipPath><clipPath id="dd07cbaf95"><rect x="0" width="301" y="0" height="297"/></clipPath><clipPath id="0d7f80908c"><rect x="0" width="195" y="0" height="233"/></clipPath></defs><rect x="-37.5" width="450" fill="#ffffff" y="-37.499999" height="449.999989" fill-opacity="1"/><g clip-path="url(#a5c8348567)"><g clip-path="url(#5a84a0ca7e)"><g transform="matrix(1, 0, 0, 1, 37, 37)"><g clip-path="url(#dd07cbaf95)"><g clip-path="url(#3c3a8698aa)"><g clip-path="url(#c111f57226)"><path fill="#272a59" d="M 0.5 0.5 L 300.355469 0.5 L 300.355469 296.644531 L 0.5 296.644531 Z M 0.5 0.5 " fill-opacity="1" fill-rule="nonzero"/></g></g></g></g></g></g><g transform="matrix(1, 0, 0, 1, 96, 142)"><g clip-path="url(#0d7f80908c)"><g fill="#ffffff" fill-opacity="1"><g transform="translate(2.458296, 101.179501)"><g><path d="M 40.90625 -76.734375 C 37.894531 -76.734375 35.019531 -75.25 32.28125 -72.28125 C 29.539062 -69.320312 27.53125 -66.375 26.25 -63.4375 L 24.34375 -59.046875 L 6.65625 -67.609375 C 6.875 -68.359375 7.242188 -69.332031 7.765625 -70.53125 C 8.296875 -71.738281 9.535156 -73.898438 11.484375 -77.015625 C 13.441406 -80.140625 15.601562 -82.882812 17.96875 -85.25 C 20.332031 -87.613281 23.5625 -89.769531 27.65625 -91.71875 C 31.757812 -93.675781 36.175781 -94.65625 40.90625 -94.65625 C 46.988281 -94.65625 52.300781 -93.882812 56.84375 -92.34375 C 61.394531 -90.800781 64.910156 -88.882812 67.390625 -86.59375 C 69.867188 -84.300781 71.875 -81.597656 73.40625 -78.484375 C 74.945312 -75.367188 75.925781 -72.53125 76.34375 -69.96875 C 76.757812 -67.414062 76.96875 -64.753906 76.96875 -61.984375 C 76.96875 -57.921875 75.835938 -53.65625 73.578125 -49.1875 C 71.328125 -44.71875 68.601562 -40.734375 65.40625 -37.234375 C 62.21875 -33.742188 59.007812 -30.550781 55.78125 -27.65625 C 52.550781 -24.769531 49.804688 -22.535156 47.546875 -20.953125 L 44.171875 -18.59375 L 78.65625 -18.59375 L 78.65625 0 L 6.203125 0 L 6.203125 -5.296875 C 7.472656 -6.347656 9.195312 -7.789062 11.375 -9.625 C 13.5625 -11.46875 17.394531 -14.984375 22.875 -20.171875 C 28.363281 -25.359375 33.207031 -30.222656 37.40625 -34.765625 C 41.613281 -39.304688 45.445312 -44.164062 48.90625 -49.34375 C 52.363281 -54.53125 54.09375 -58.742188 54.09375 -61.984375 C 54.09375 -63.253906 53.957031 -64.523438 53.6875 -65.796875 C 53.425781 -67.078125 52.921875 -68.640625 52.171875 -70.484375 C 51.421875 -72.328125 50.066406 -73.828125 48.109375 -74.984375 C 46.160156 -76.148438 43.757812 -76.734375 40.90625 -76.734375 Z M 40.90625 -76.734375 "/></g></g></g><g fill="#ffffff" fill-opacity="1"><g transform="translate(98.55483, 101.179501)"><g><path d="M 3.15625 -46.421875 C 3.15625 -61.753906 6.796875 -73.625 14.078125 -82.03125 C 21.367188 -90.445312 30.347656 -94.65625 41.015625 -94.65625 C 51.679688 -94.65625 60.640625 -90.445312 67.890625 -82.03125 C 75.140625 -73.625 78.765625 -61.753906 78.765625 -46.421875 C 78.765625 -38.085938 77.75 -30.765625 75.71875 -24.453125 C 73.695312 -18.140625 70.898438 -13.125 67.328125 -9.40625 C 63.765625 -5.6875 59.785156 -2.90625 55.390625 -1.0625 C 50.992188 0.769531 46.203125 1.6875 41.015625 1.6875 C 35.835938 1.6875 31.050781 0.769531 26.65625 -1.0625 C 22.257812 -2.90625 18.253906 -5.6875 14.640625 -9.40625 C 11.035156 -13.125 8.21875 -18.140625 6.1875 -24.453125 C 4.164062 -30.765625 3.15625 -38.085938 3.15625 -46.421875 Z M 24.5625 -46.421875 C 24.5625 -36.585938 25.988281 -29.207031 28.84375 -24.28125 C 31.695312 -19.363281 35.753906 -16.90625 41.015625 -16.90625 C 46.203125 -16.90625 50.222656 -19.363281 53.078125 -24.28125 C 55.929688 -29.207031 57.359375 -36.585938 57.359375 -46.421875 C 57.359375 -55.816406 55.910156 -63.101562 53.015625 -68.28125 C 50.128906 -73.46875 46.128906 -76.0625 41.015625 -76.0625 C 35.910156 -76.0625 31.890625 -73.453125 28.953125 -68.234375 C 26.023438 -63.015625 24.5625 -55.742188 24.5625 -46.421875 Z M 24.5625 -46.421875 "/></g></g></g><g fill="#ffffff" fill-opacity="1"><g transform="translate(7.28779, 194.278172)"><g><path d="M 40.90625 -76.734375 C 37.894531 -76.734375 35.019531 -75.25 32.28125 -72.28125 C 29.539062 -69.320312 27.53125 -66.375 26.25 -63.4375 L 24.34375 -59.046875 L 6.65625 -67.609375 C 6.875 -68.359375 7.242188 -69.332031 7.765625 -70.53125 C 8.296875 -71.738281 9.535156 -73.898438 11.484375 -77.015625 C 13.441406 -80.140625 15.601562 -82.882812 17.96875 -85.25 C 20.332031 -87.613281 23.5625 -89.769531 27.65625 -91.71875 C 31.757812 -93.675781 36.175781 -94.65625 40.90625 -94.65625 C 46.988281 -94.65625 52.300781 -93.882812 56.84375 -92.34375 C 61.394531 -90.800781 64.910156 -88.882812 67.390625 -86.59375 C 69.867188 -84.300781 71.875 -81.597656 73.40625 -78.484375 C 74.945312 -75.367188 75.925781 -72.53125 76.34375 -69.96875 C 76.757812 -67.414062 76.96875 -64.753906 76.96875 -61.984375 C 76.96875 -57.921875 75.835938 -53.65625 73.578125 -49.1875 C 71.328125 -44.71875 68.601562 -40.734375 65.40625 -37.234375 C 62.21875 -33.742188 59.007812 -30.550781 55.78125 -27.65625 C 52.550781 -24.769531 49.804688 -22.535156 47.546875 -20.953125 L 44.171875 -18.59375 L 78.65625 -18.59375 L 78.65625 0 L 6.203125 0 L 6.203125 -5.296875 C 7.472656 -6.347656 9.195312 -7.789062 11.375 -9.625 C 13.5625 -11.46875 17.394531 -14.984375 22.875 -20.171875 C 28.363281 -25.359375 33.207031 -30.222656 37.40625 -34.765625 C 41.613281 -39.304688 45.445312 -44.164062 48.90625 -49.34375 C 52.363281 -54.53125 54.09375 -58.742188 54.09375 -61.984375 C 54.09375 -63.253906 53.957031 -64.523438 53.6875 -65.796875 C 53.425781 -67.078125 52.921875 -68.640625 52.171875 -70.484375 C 51.421875 -72.328125 50.066406 -73.828125 48.109375 -74.984375 C 46.160156 -76.148438 43.757812 -76.734375 40.90625 -76.734375 Z M 40.90625 -76.734375 "/></g></g></g><g fill="#ffffff" fill-opacity="1"><g transform="translate(103.384323, 194.278172)"><g><path d="M 2.03125 -18.484375 L 18.8125 -26.59375 C 20.914062 -19.53125 26.363281 -16 35.15625 -16 C 38.988281 -16 42.160156 -17.273438 44.671875 -19.828125 C 47.191406 -22.390625 48.453125 -25.625 48.453125 -29.53125 C 48.453125 -33.4375 47.226562 -36.644531 44.78125 -39.15625 C 42.34375 -41.675781 39.414062 -43.421875 36 -44.390625 C 32.582031 -45.367188 28.695312 -45.859375 24.34375 -45.859375 C 18.175781 -45.859375 12.878906 -44.882812 8.453125 -42.9375 L 16.234375 -92.96875 L 63.671875 -92.96875 L 63.671875 -74.375 L 34.375 -74.375 L 32.34375 -61.421875 C 32.5625 -61.421875 32.972656 -61.4375 33.578125 -61.46875 C 34.179688 -61.507812 34.632812 -61.53125 34.9375 -61.53125 C 39.664062 -61.53125 43.960938 -61.003906 47.828125 -59.953125 C 51.703125 -58.898438 55.347656 -57.207031 58.765625 -54.875 C 62.179688 -52.550781 64.847656 -49.171875 66.765625 -44.734375 C 68.679688 -40.304688 69.640625 -35.007812 69.640625 -28.84375 C 69.640625 -19.976562 66.390625 -12.671875 59.890625 -6.921875 C 53.390625 -1.179688 45.144531 1.6875 35.15625 1.6875 C 26.0625 1.6875 18.773438 -0.28125 13.296875 -4.21875 C 7.816406 -8.164062 4.0625 -12.921875 2.03125 -18.484375 Z M 2.03125 -18.484375 "/></g></g></g></g></g></svg>